<svg width="4132" height="4132" viewBox="0 0 4132 4132" fill="none" xmlns="http://www.w3.org/2000/svg">
<path d="M1536.77 1178.39C1887.88 1178.39 2239 1178.39 2600.76 1178.39C2600.76 1417.01 2600.76 1655.63 2600.76 1901.49C2616.67 1901.49 2632.57 1901.49 2648.96 1901.49C2650.35 1915.68 2651.49 1929.63 2652.18 1943.84C2652.47 1948.6 2652.86 1953.36 2653.38 1958.1C2658.32 2004.43 2637.48 2043.23 2609.5 2079.04C2594.37 2096.94 2579.71 2103.98 2556.6 2107.48C2536.39 2108.91 2516.35 2108.93 2496.12 2108.3C2483.46 2108.01 2470.8 2108.21 2458.13 2108.35C2433.41 2108.55 2408.7 2108.29 2383.98 2107.87C2355.16 2107.4 2326.34 2107.39 2297.51 2107.4C2246.08 2107.4 2194.66 2106.98 2143.24 2106.33C2093.39 2105.7 2043.54 2105.36 1993.69 2105.34C1990.62 2105.34 1987.54 2105.34 1984.37 2105.34C1979.77 2105.34 1979.77 2105.34 1975.07 2105.34C1918.2 2105.31 1861.34 2105.04 1804.47 2104.64C1784.39 2104.51 1764.32 2104.44 1744.25 2104.39C1719.79 2104.33 1695.35 2104.12 1670.9 2103.74C1658.43 2103.54 1645.97 2103.4 1633.5 2103.43C1619.97 2103.46 1606.46 2103.19 1592.94 2102.89C1589.01 2102.94 1585.09 2103 1581.04 2103.05C1564.14 2102.45 1554.43 2101.65 1542.17 2089.38C1535.2 2079.81 1529.09 2070.02 1522.99 2059.88C1519.7 2056.03 1516.3 2052.27 1512.77 2048.64C1477.12 2006.6 1485.65 1953.33 1488.56 1901.49C1504.47 1901.49 1520.38 1901.49 1536.77 1901.49C1536.77 1662.86 1536.77 1424.24 1536.77 1178.39ZM1588.42 1230.04C1588.42 1451.62 1588.42 1673.19 1588.42 1901.49C1905.44 1901.49 2222.47 1901.49 2549.11 1901.49C2549.11 1679.91 2549.11 1458.33 2549.11 1230.04C2232.08 1230.04 1915.05 1230.04 1588.42 1230.04ZM1540.21 1953.14C1539.79 1990.75 1539.79 1990.75 1557.21 2018.99C1558.83 2021.26 1560.44 2023.52 1562.1 2025.85C1569.55 2036.43 1569.55 2036.43 1578.09 2046.11C1583.31 2046.49 1588.56 2046.63 1593.79 2046.68C1598.92 2046.73 1598.92 2046.73 1604.15 2046.79C1609.84 2046.83 1609.84 2046.83 1615.66 2046.87C1619.66 2046.91 1623.66 2046.95 1627.78 2046.99C1638.93 2047.09 1650.08 2047.18 1661.24 2047.26C1670.79 2047.34 1680.35 2047.42 1689.9 2047.51C1780.53 2048.3 1871.16 2048.73 1961.79 2049.07C1973.59 2049.11 1985.4 2049.16 1997.2 2049.2C2000.14 2049.22 2003.07 2049.23 2006.1 2049.24C2053.59 2049.43 2101.08 2049.82 2148.57 2050.28C2197.33 2050.75 2246.08 2051.02 2294.84 2051.11C2322.22 2051.16 2349.59 2051.31 2376.97 2051.67C2400.29 2051.99 2423.61 2052.13 2446.94 2052.04C2458.84 2052 2470.73 2052.04 2482.62 2052.31C2532.76 2055.57 2532.76 2055.57 2576.32 2035.66C2598.04 2008.96 2597.31 1989.29 2597.31 1953.14C2248.47 1953.14 1899.63 1953.14 1540.21 1953.14Z" fill="url(#paint0_radial_5_5)"/>
<path d="M2060.58 723.007C2063.64 723.005 2066.69 723.002 2069.84 723C2217.45 723.178 2360.09 757.773 2490.57 827.168C2492.99 828.436 2495.41 829.703 2497.91 831.01C2699.37 936.967 2859.43 1123.97 2931.32 1340.22C2932.72 1344.43 2932.72 1344.43 2934.16 1348.72C3010.81 1581.72 2991.01 1834.98 2881.09 2054.06C2844.53 2125.53 2800.14 2190.48 2745.38 2249.26C2741.48 2253.52 2737.58 2257.77 2733.69 2262.03C2695.74 2303.31 2695.74 2303.31 2676.11 2319.58C2671.44 2323.49 2666.92 2327.57 2662.49 2331.74C2546.13 2441.4 2388.63 2508.82 2233.4 2539.37C2229.48 2540.15 2229.48 2540.15 2225.49 2540.94C2172.34 2550.76 2118.83 2553.59 2064.89 2553.35C2061.9 2553.35 2058.92 2553.34 2055.84 2553.34C2006.18 2553.16 1957.65 2550.54 1908.65 2541.95C1905.54 2541.43 1902.43 2540.91 1899.23 2540.38C1757.04 2515.9 1611.63 2453.59 1500.96 2360.63C1495.51 2356.06 1489.99 2351.59 1484.46 2347.13C1457.62 2325.14 1432.88 2301.04 1408.29 2276.6C1405.12 2273.46 1401.96 2270.33 1398.7 2267.1C1235.34 2102.99 1148.98 1868.61 1147.44 1639.03C1148.08 1432.5 1216.53 1233.85 1343.94 1071.64C1346.4 1068.48 1348.86 1065.31 1351.39 1062.04C1373.59 1034.63 1398.28 1009.68 1423.14 984.7C1424.89 982.932 1426.64 981.163 1428.44 979.341C1594.46 812 1826.4 723.167 2060.58 723.007ZM1715.82 837.498C1712.65 838.9 1709.48 840.303 1706.22 841.748C1658.67 863.046 1614.28 887.408 1571.2 916.695C1567.6 919.136 1564.01 921.577 1560.31 924.092C1535.11 941.882 1511.88 961.978 1488.56 982.118C1486.2 984.084 1483.85 986.051 1481.42 988.076C1440 1023.02 1403.59 1062.53 1371.49 1106.08C1370.07 1107.95 1368.66 1109.83 1367.21 1111.76C1229.37 1294.61 1168.96 1525.84 1197.93 1752.82C1228.6 1969.88 1340.18 2183.42 1516.11 2318.13C1518.49 2319.96 1520.87 2321.78 1523.32 2323.66C1558.67 2350.59 1594.33 2375.74 1633.18 2397.33C1635.59 2398.69 1638 2400.06 1640.48 2401.46C1801.45 2492.13 1994.12 2529.83 2177.23 2504.07C2181.81 2503.43 2181.81 2503.43 2186.48 2502.78C2321.41 2483.24 2455.98 2433.72 2566.32 2352.56C2568.22 2351.18 2570.11 2349.79 2572.06 2348.36C2585.31 2338.58 2598.25 2328.44 2611.09 2318.13C2616.25 2314.03 2616.25 2314.03 2621.52 2309.85C2672.88 2267.83 2720.22 2220.41 2759.15 2166.62C2762.49 2162.15 2765.82 2157.67 2769.16 2153.19C2840.58 2055.96 2891.84 1943.69 2917.54 1825.73C2918.49 1821.39 2918.49 1821.39 2919.46 1816.96C2959.41 1627.95 2933.87 1427.46 2848.68 1254.14C2846.98 1250.62 2846.98 1250.62 2845.24 1247.03C2789.46 1132.63 2702.48 1024.14 2599.77 948.613C2593.8 944.189 2587.93 939.656 2582.06 935.095C2338.75 748.182 1994.64 713.554 1715.82 837.498Z" fill="url(#paint1_radial_5_5)"/>
<path d="M2142.79 1312.68C2166.66 1321.2 2166.66 1321.2 2191 1329.89C2184.06 1354.17 2175.89 1377.42 2166.4 1400.8C2164.3 1406.01 2164.3 1406.01 2162.17 1411.32C2157.58 1422.72 2152.97 1434.11 2148.36 1445.5C2145.13 1453.52 2141.9 1461.54 2138.67 1469.57C2131.04 1488.52 2123.39 1507.48 2115.73 1526.43C2101.3 1562.17 2086.89 1597.92 2072.48 1633.68C2067.8 1645.29 2063.12 1656.9 2058.43 1668.5C2056.95 1672.17 2055.47 1675.83 2053.95 1679.61C2051.05 1686.78 2048.15 1693.95 2045.25 1701.12C2037.93 1719.22 2030.83 1737.38 2024.02 1755.67C2022.63 1759.35 2021.25 1763.04 2019.82 1766.83C2017.19 1773.85 2014.6 1780.88 2012.06 1787.94C2010.89 1791.05 2009.72 1794.16 2008.51 1797.36C2007.51 1800.11 2006.5 1802.85 2005.47 1805.68C2001.62 1811.96 2001.62 1811.96 1994.85 1814.74C1985.23 1815.65 1978.88 1813.01 1969.98 1809.38C1966.95 1808.19 1963.92 1807 1960.79 1805.77C1953.41 1801.63 1953.41 1801.63 1949.97 1791.3C1951.74 1784.57 1951.74 1784.57 1954.9 1776.77C1956.08 1773.8 1957.26 1770.84 1958.48 1767.78C1960.47 1762.91 1960.47 1762.91 1962.51 1757.95C1963.89 1754.52 1965.27 1751.09 1966.69 1747.56C1971.28 1736.13 1975.92 1724.73 1980.57 1713.33C1983.8 1705.33 1987.02 1697.33 1990.24 1689.33C1997.91 1670.31 2005.61 1651.31 2013.33 1632.3C2022.78 1609.02 2032.19 1585.71 2041.6 1562.41C2053.06 1534.03 2064.53 1505.65 2076.02 1477.28C2093.56 1433.98 2111 1390.63 2128.27 1347.22C2129.72 1343.57 2131.18 1339.92 2132.68 1336.15C2133.9 1333.07 2135.12 1329.99 2136.39 1326.81C2139.35 1319.56 2139.35 1319.56 2142.79 1312.68Z" fill="url(#paint2_radial_5_5)"/>
<path d="M2277.08 1378.1C2290.25 1383.54 2298.56 1391.86 2308.54 1401.89C2310.26 1403.6 2311.97 1405.32 2313.74 1407.08C2319.38 1412.73 2325 1418.4 2330.62 1424.08C2334.53 1428 2338.45 1431.93 2342.37 1435.86C2352.66 1446.18 2362.94 1456.52 2373.21 1466.87C2383.7 1477.43 2394.21 1487.97 2404.72 1498.51C2425.32 1519.19 2445.9 1539.89 2466.47 1560.6C2461 1573.91 2452.49 1582.29 2442.36 1592.37C2440.61 1594.12 2438.87 1595.87 2437.07 1597.67C2431.31 1603.42 2425.52 1609.15 2419.74 1614.88C2415.73 1618.88 2411.73 1622.87 2407.73 1626.87C2397.2 1637.37 2386.66 1647.85 2376.11 1658.32C2365.34 1669.02 2354.59 1679.73 2343.84 1690.45C2322.75 1711.46 2301.65 1732.45 2280.53 1753.42C2276.78 1750.36 2273.05 1747.27 2269.34 1744.17C2267.26 1742.45 2265.18 1740.74 2263.04 1738.97C2256.42 1732.76 2256.42 1732.76 2242.65 1715.55C2292.65 1665.55 2342.64 1615.55 2394.16 1564.04C2345.3 1515.18 2296.44 1466.32 2246.09 1415.98C2252.11 1403.95 2256.13 1398.28 2265.46 1389.29C2267.64 1387.18 2269.81 1385.07 2272.05 1382.89C2273.71 1381.31 2275.37 1379.73 2277.08 1378.1Z" fill="url(#paint3_radial_5_5)"/>
<path d="M1857 1378.1C1867.95 1383.3 1875.24 1388.71 1883.68 1397.47C1886.85 1400.73 1886.85 1400.73 1890.08 1404.06C1892.46 1406.55 1892.46 1406.55 1894.87 1409.09C1889.81 1420.81 1883.27 1428.42 1874.25 1437.39C1869.95 1441.69 1869.95 1441.69 1865.56 1446.07C1861.04 1450.54 1861.04 1450.54 1856.43 1455.09C1852.28 1459.23 1852.28 1459.23 1848.04 1463.46C1837.7 1473.76 1827.33 1484.04 1816.97 1494.31C1793.82 1517.32 1770.66 1540.33 1746.81 1564.04C1796.81 1614.04 1846.8 1664.04 1898.32 1715.55C1877.66 1739.65 1877.66 1739.65 1860.44 1753.42C1799.08 1692.06 1737.72 1630.7 1674.5 1567.48C1681.34 1553.81 1687.56 1546.7 1698.29 1536.03C1700 1534.31 1701.72 1532.6 1703.48 1530.83C1709.13 1525.19 1714.8 1519.57 1720.47 1513.95C1724.4 1510.04 1728.33 1506.12 1732.26 1502.2C1742.58 1491.9 1752.92 1481.63 1763.27 1471.36C1773.83 1460.87 1784.37 1450.36 1794.91 1439.85C1815.59 1419.25 1836.28 1398.67 1857 1378.1Z" fill="url(#paint4_radial_5_5)"/>
<path d="M1946.52 1973.8C2027.2 1973.8 2107.88 1973.8 2191 1973.8C2191 1990.84 2191 2007.89 2191 2025.45C2110.32 2025.45 2029.65 2025.45 1946.52 2025.45C1946.52 2008.4 1946.52 1991.36 1946.52 1973.8Z" fill="url(#paint5_radial_5_5)"/>
<path d="M1559.79 2753.71C1564.2 2753.53 1568.61 2753.34 1573.16 2753.15C1604.98 2752.68 1604.98 2752.68 1616.3 2760.28C1621.63 2766.42 1625.7 2772.49 1629.74 2779.54C1632.07 2782.65 1634.41 2785.76 1636.81 2788.97C1638.88 2791.89 1640.95 2794.82 1643.08 2797.83C1654.48 2813.73 1666.47 2828.99 1678.79 2844.18C1683.8 2850.54 1688.4 2856.9 1692.79 2863.68C1698.7 2873.3 1698.7 2873.3 1708.93 2882.84C1708.93 2860.11 1708.93 2837.39 1708.93 2813.97C1700.98 2815.11 1693.03 2816.24 1684.83 2817.41C1681.39 2807.08 1681.39 2807.08 1684.83 2755.43C1728.01 2755.43 1771.19 2755.43 1815.68 2755.43C1815.68 2774.75 1815.68 2794.07 1815.68 2813.97C1805.45 2813.97 1795.22 2813.97 1784.69 2813.97C1785.25 2816.44 1785.81 2818.91 1786.38 2821.46C1788.08 2830.92 1788.57 2839.5 1788.58 2849.1C1788.59 2852.58 1788.6 2856.06 1788.61 2859.65C1788.6 2865.23 1788.6 2865.23 1788.59 2870.92C1788.59 2874.77 1788.59 2878.62 1788.6 2882.58C1788.6 2890.71 1788.59 2898.83 1788.58 2906.95C1788.56 2919.4 1788.58 2931.85 1788.6 2944.31C1788.6 2952.2 1788.59 2960.09 1788.59 2967.98C1788.59 2971.71 1788.6 2975.45 1788.61 2979.29C1788.59 2984.48 1788.59 2984.48 1788.58 2989.78C1788.57 2992.82 1788.57 2995.87 1788.57 2999C1788.13 3006.8 1788.13 3006.8 1784.69 3017.13C1761.66 3021.09 1738.46 3024.45 1715.82 3017.13C1696.72 3002.67 1685.04 2980.85 1673 2960.54C1664.84 2947.15 1655.51 2934.74 1646.09 2922.22C1643.06 2918.06 1640.03 2913.89 1637 2909.73C1630.19 2900.18 1630.19 2900.18 1622.85 2893.17C1621.71 2914.76 1620.58 2936.35 1619.41 2958.59C1627.36 2958.59 1635.32 2958.59 1643.51 2958.59C1647.12 2970.42 1647.41 2981.34 1647.38 2993.67C1647.4 2999.18 1647.4 2999.18 1647.41 3004.79C1646.95 3013.68 1646.95 3013.68 1643.51 3017.13C1633.87 3017.48 1624.31 3017.61 1614.67 3017.59C1611.78 3017.59 1608.89 3017.59 1605.91 3017.6C1599.79 3017.6 1593.66 3017.59 1587.54 3017.58C1578.13 3017.56 1568.72 3017.58 1559.31 3017.6C1553.37 3017.6 1547.44 3017.59 1541.5 3017.59C1538.67 3017.59 1535.83 3017.6 1532.92 3017.61C1513.06 3017.52 1513.06 3017.52 1509.22 3013.68C1508.88 3007.02 1508.77 3000.34 1508.79 2993.67C1508.78 2990.03 1508.77 2986.38 1508.76 2982.63C1509.15 2973.96 1510.15 2966.84 1512.66 2958.59C1516.57 2958.09 1520.48 2957.6 1524.5 2957.08C1536.11 2956.48 1536.11 2956.48 1540.21 2951.7C1540.57 2942.77 1540.69 2933.95 1540.64 2925.02C1540.63 2922.31 1540.63 2919.6 1540.62 2916.81C1540.39 2883.64 1538.6 2850.53 1536.77 2817.41C1528.81 2816.28 1520.86 2815.14 1512.66 2813.97C1509.06 2802.14 1508.76 2791.22 1508.79 2778.89C1508.78 2775.22 1508.77 2771.55 1508.76 2767.77C1509.88 2745.97 1543.07 2754.01 1559.79 2753.71Z" fill="url(#paint6_linear_5_5)"/>
<path d="M2077.37 2755.43C2121.69 2755.43 2166 2755.43 2211.66 2755.43C2214.46 2769.42 2215.47 2780.34 2215.32 2794.39C2215.29 2798.07 2215.26 2801.75 2215.22 2805.54C2215.18 2808.32 2215.14 2811.1 2215.1 2813.97C2204.88 2813.97 2194.65 2817.41 2184.11 2817.41C2184.11 2832.19 2184.11 2843.52 2184.11 2858.73C2211.38 2859.87 2238.66 2861.01 2266.75 2862.18C2266.75 2847.41 2266.75 2832.63 2266.75 2817.41C2256.53 2816.28 2246.3 2815.14 2235.76 2813.97C2236.9 2794.65 2238.04 2775.34 2239.21 2755.43C2284.66 2755.43 2330.11 2755.43 2376.94 2755.43C2376.94 2774.75 2376.94 2794.07 2376.94 2813.97C2363.3 2815.68 2363.3 2815.68 2349.39 2817.41C2348.82 2835.37 2348.26 2853.32 2347.73 2871.28C2347.55 2877.39 2347.36 2883.5 2347.16 2889.61C2346.88 2898.38 2346.62 2907.16 2346.37 2915.94C2346.27 2918.67 2346.18 2921.41 2346.09 2924.22C2345.78 2935.54 2345.78 2944.31 2349.39 2955.15C2358.48 2956.28 2367.57 2957.42 2376.94 2958.59C2376.94 2977.91 2376.94 2997.23 2376.94 3017.13C2359.06 3019.68 2343.4 3020.85 2325.63 3020.15C2323.14 3020.07 2320.65 3019.99 2318.09 3019.91C2310.23 3019.65 2302.37 3019.36 2294.52 3019.06C2289.15 3018.88 2283.79 3018.7 2278.42 3018.52C2265.35 3018.08 2252.28 3017.6 2239.21 3017.13C2239.21 2997.81 2239.21 2978.49 2239.21 2958.59C2248.3 2957.45 2257.39 2956.32 2266.75 2955.15C2266.75 2943.78 2266.75 2932.42 2266.75 2920.71C2239.48 2920.71 2212.21 2920.71 2184.11 2920.71C2184.11 2932.08 2184.11 2943.44 2184.11 2955.15C2193.2 2956.28 2202.29 2957.42 2211.66 2958.59C2214.14 2972.85 2215.31 2986.31 2215.21 3000.8C2215.2 3003.87 2215.18 3006.93 2215.16 3010.09C2215.14 3012.42 2215.12 3014.74 2215.1 3017.13C2195.55 3017.7 2176 3018.26 2156.45 3018.79C2149.79 3018.97 2143.13 3019.16 2136.48 3019.36C2126.93 3019.64 2117.38 3019.9 2107.84 3020.15C2104.84 3020.25 2101.85 3020.34 2098.76 3020.44C2091.63 3020.62 2084.5 3020.61 2077.37 3020.57C2073.93 3017.13 2073.93 3017.13 2073.47 3006.61C2073.48 3002.27 2073.49 2997.93 2073.5 2993.46C2073.49 2989.13 2073.48 2984.81 2073.47 2980.35C2073.93 2968.92 2073.93 2968.92 2077.37 2958.59C2086.46 2957.45 2095.55 2956.32 2104.92 2955.15C2104.92 2909.7 2104.92 2864.24 2104.92 2817.41C2095.83 2816.28 2086.74 2815.14 2077.37 2813.97C2077.37 2794.65 2077.37 2775.34 2077.37 2755.43Z" fill="url(#paint7_linear_5_5)"/>
<path d="M896.113 2754.88C899.746 2754.85 903.379 2754.81 907.123 2754.78C911.086 2754.76 915.049 2754.75 919.132 2754.74C923.189 2754.72 927.246 2754.7 931.426 2754.68C940.044 2754.64 948.661 2754.62 957.279 2754.61C970.414 2754.57 983.547 2754.47 996.681 2754.36C1005.05 2754.34 1013.42 2754.32 1021.79 2754.3C1027.66 2754.24 1027.66 2754.24 1033.65 2754.18C1064.12 2754.26 1089.28 2759.23 1113.24 2779.54C1131.47 2804.73 1140.4 2827.27 1137.34 2858.73C1132.25 2883.29 1125.49 2901.93 1104.2 2916.63C1096.02 2920.71 1096.02 2920.71 1089.13 2920.71C1092.5 2925.81 1095.87 2930.9 1099.25 2935.99C1101.13 2938.83 1103 2941.67 1104.94 2944.59C1109.24 2951.36 1109.24 2951.36 1113.24 2955.15C1118.38 2955.86 1123.56 2956.41 1128.73 2956.87C1143.84 2958.21 1143.84 2958.21 1147.67 2962.03C1147.67 2980.22 1147.67 2998.4 1147.67 3017.13C1111.31 3017.13 1074.95 3017.13 1037.48 3017.13C1036.35 3003.49 1035.21 2989.86 1034.04 2975.81C1027.54 2960.34 1018.18 2945.71 1002.98 2937.72C995.818 2935.42 995.818 2935.42 985.833 2934.49C985.833 2943.58 985.833 2952.67 985.833 2962.03C991.692 2961.93 991.692 2961.93 997.67 2961.82C1009.94 2962.03 1009.94 2962.03 1013.38 2965.48C1013.72 2973.51 1013.83 2981.55 1013.81 2989.58C1013.82 2996.19 1013.82 2996.19 1013.84 3002.92C1013.38 3013.68 1013.38 3013.68 1009.94 3017.13C1000 3017.43 990.156 3017.52 980.224 3017.46C975.761 3017.46 975.761 3017.46 971.207 3017.45C961.663 3017.43 952.12 3017.39 942.576 3017.34C936.122 3017.33 929.668 3017.31 923.214 3017.3C907.358 3017.26 891.503 3017.19 875.647 3017.13C875.647 2997.81 875.647 2978.49 875.647 2958.59C892.863 2955.15 892.863 2955.15 903.193 2955.15C904.33 2908.56 905.466 2861.97 906.637 2813.97C898.683 2815.11 890.728 2816.24 882.533 2817.41C880.261 2816.28 877.988 2815.14 875.647 2813.97C875.554 2804.86 875.486 2795.75 875.431 2786.64C875.403 2784.04 875.374 2781.44 875.344 2778.76C875.314 2772.13 875.467 2765.5 875.647 2758.88C881.374 2753.15 888.238 2754.94 896.113 2754.88ZM985.833 2817.41C984.834 2824.56 984.087 2831.75 983.466 2838.94C983.098 2842.86 982.729 2846.78 982.35 2850.83C982.39 2862.29 984.276 2869.2 989.277 2879.39C998.184 2879.28 1007.06 2879.05 1015.96 2878.75C1019.73 2878.72 1019.73 2878.72 1023.58 2878.69C1036.82 2878.15 1043.13 2877.12 1052.92 2867.92C1059.83 2855.76 1060.11 2848.42 1058.14 2834.63C1050.79 2822.96 1047.2 2818.36 1034.04 2813.97C1026.44 2813.65 1018.83 2813.52 1011.23 2813.54C1005.2 2813.53 1005.2 2813.53 999.042 2813.51C989.618 2812.86 989.618 2812.86 985.833 2817.41Z" fill="url(#paint8_linear_5_5)"/>
<path d="M1246.79 2755.04C1252.6 2755.04 1258.41 2755.06 1264.22 2755.1C1268.8 2755.11 1268.8 2755.11 1273.47 2755.11C1283.26 2755.13 1293.05 2755.18 1302.84 2755.22C1309.46 2755.24 1316.08 2755.25 1322.69 2755.27C1338.96 2755.3 1355.22 2755.36 1371.49 2755.43C1400.7 2813.66 1427.1 2872.17 1450.68 2932.95C1451.81 2935.73 1452.95 2938.51 1454.13 2941.37C1455.16 2943.97 1456.19 2946.56 1457.25 2949.23C1458.49 2951.18 1459.73 2953.14 1461.01 2955.15C1473.15 2957.7 1473.15 2957.7 1485.12 2958.59C1498.94 2972.41 1488.56 2997.58 1488.56 3017.13C1445.38 3017.13 1402.2 3017.13 1357.71 3017.13C1357.71 3000.08 1357.71 2983.04 1357.71 2965.48C1366.24 2963.77 1366.24 2963.77 1374.93 2962.03C1372.66 2954.08 1370.38 2946.13 1368.04 2937.93C1341.91 2937.93 1315.77 2937.93 1288.85 2937.93C1287.71 2944.75 1286.57 2951.57 1285.4 2958.59C1291.08 2960.86 1296.77 2963.14 1302.62 2965.48C1302.62 2982.52 1302.62 2999.57 1302.62 3017.13C1258.3 3017.13 1213.99 3017.13 1168.33 3017.13C1168.33 2997.81 1168.33 2978.49 1168.33 2958.59C1177.42 2957.45 1186.51 2956.32 1195.88 2955.15C1201.64 2950.45 1201.64 2950.45 1204.01 2943.6C1205.1 2941.16 1206.19 2938.72 1207.31 2936.21C1208.36 2933.56 1209.41 2930.91 1210.5 2928.18C1212.26 2924.11 1212.26 2924.11 1214.06 2919.96C1217.79 2911.28 1221.36 2902.55 1224.93 2893.81C1227.42 2887.97 1229.92 2882.13 1232.43 2876.29C1237 2865.58 1241.53 2854.85 1245.96 2844.08C1246.85 2841.91 1247.73 2839.75 1248.65 2837.53C1251.08 2830.9 1252.82 2824.29 1254.41 2817.41C1251.08 2816.99 1247.74 2816.56 1244.3 2816.12C1239.08 2815.06 1239.08 2815.06 1233.75 2813.97C1228.61 2803.69 1229.86 2794.19 1229.88 2782.77C1229.87 2776.21 1229.87 2776.21 1229.85 2769.52C1230.52 2753.97 1230.74 2755.53 1246.79 2755.04ZM1323.28 2834.63C1320.88 2840.79 1318.52 2846.96 1316.18 2853.14C1314.86 2856.57 1313.54 2860.01 1312.18 2863.55C1308.44 2872.34 1308.44 2872.34 1312.95 2879.39C1322.04 2879.39 1331.13 2879.39 1340.5 2879.39C1346.39 2862.26 1340.53 2850.38 1333.61 2834.63C1330.2 2834.63 1326.79 2834.63 1323.28 2834.63Z" fill="url(#paint9_linear_5_5)"/>
<path d="M2598.13 2751.53C2600.61 2751.53 2603.08 2751.53 2605.62 2751.52C2610.86 2751.52 2616.1 2751.53 2621.33 2751.54C2629.31 2751.56 2637.29 2751.54 2645.27 2751.52C2650.36 2751.52 2655.45 2751.53 2660.54 2751.53C2662.92 2751.53 2665.29 2751.52 2667.74 2751.51C2680.6 2751.57 2691.28 2752.88 2704.06 2755.43C2704.06 2774.75 2704.06 2794.07 2704.06 2813.97C2693.83 2813.97 2683.6 2813.97 2673.07 2813.97C2673.18 2819.18 2673.18 2819.18 2673.29 2824.49C2673.54 2837.51 2673.69 2850.54 2673.82 2863.57C2673.89 2869.18 2673.99 2874.79 2674.11 2880.4C2674.9 2918.34 2673.61 2947.65 2651.76 2980.11C2618.94 3012.2 2588.14 3018.68 2543.6 3018.62C2507.31 3017.9 2478.06 3008.17 2451.39 2982.78C2431.54 2958 2428.12 2926.81 2428.25 2896.1C2428.26 2893.84 2428.26 2891.57 2428.27 2889.24C2428.29 2882.08 2428.33 2874.93 2428.37 2867.77C2428.39 2862.89 2428.41 2858.01 2428.42 2853.13C2428.46 2841.22 2428.52 2829.32 2428.59 2817.41C2424.12 2816.92 2419.64 2816.42 2415.03 2815.91C2401.47 2814.4 2401.47 2814.4 2397.6 2810.53C2397.26 2801.88 2397.12 2793.35 2397.17 2784.7C2397.16 2782.28 2397.14 2779.86 2397.13 2777.37C2397.16 2759.31 2397.16 2759.31 2401.04 2755.43C2410.98 2755.13 2420.82 2755.04 2430.76 2755.1C2435.22 2755.11 2435.22 2755.11 2439.77 2755.11C2449.32 2755.13 2458.86 2755.18 2468.4 2755.22C2474.86 2755.24 2481.31 2755.25 2487.77 2755.27C2503.62 2755.3 2519.48 2755.36 2535.33 2755.43C2537.95 2775.21 2538.5 2790.8 2535.33 2810.53C2521.7 2812.23 2521.7 2812.23 2507.79 2813.97C2507.44 2827.69 2507.2 2841.4 2507.03 2855.12C2506.93 2862.05 2506.75 2868.98 2506.58 2875.91C2506.32 2901.64 2506.88 2919.83 2521.56 2941.37C2536.6 2951.4 2547.25 2952.62 2565.03 2949.55C2578.23 2944.18 2582.99 2939.61 2590.43 2927.6C2594.49 2915.43 2594.57 2903.4 2594.96 2890.64C2595.18 2883.95 2595.18 2883.95 2595.4 2877.12C2595.53 2872.43 2595.67 2867.73 2595.81 2863.04C2595.96 2858.29 2596.11 2853.54 2596.26 2848.79C2596.62 2837.19 2596.97 2825.58 2597.31 2813.97C2588.22 2813.97 2579.13 2813.97 2569.77 2813.97C2565.68 2801.71 2565.99 2791.8 2566.11 2778.89C2566.14 2774.51 2566.17 2770.13 2566.2 2765.62C2566.24 2762.26 2566.28 2758.9 2566.32 2755.43C2576.54 2750.33 2586.94 2751.5 2598.13 2751.53Z" fill="url(#paint10_linear_5_5)"/>
<path d="M3194.09 2771.79C3221.06 2794.25 3242.94 2823.19 3248.1 2858.73C3250.52 2901.61 3247.17 2937.48 3220.56 2972.36C3197.73 2997.68 3168.32 3014.95 3133.81 3017.74C3077.18 3019.2 3030.93 3014.48 2987.27 2975.16C2974.04 2961.39 2967.92 2945.63 2962.31 2927.6C2961.65 2925.55 2960.99 2923.5 2960.32 2921.39C2951.98 2878.01 2960.57 2840.09 2980.84 2801.45C2998.73 2775.3 3033.13 2761.36 3062.82 2753.42C3105.76 2747.09 3157.43 2746.17 3194.09 2771.79ZM3050.97 2838.94C3037.99 2855.23 3033.68 2870.72 3035.05 2891.45C3037.95 2911.28 3045.53 2925.06 3060.23 2939.01C3081.81 2953.22 3102.27 2954.42 3127.59 2951.7C3145.12 2943.74 3156.27 2930.53 3165.46 2913.83C3171.6 2894.56 3170.97 2875.47 3164.82 2856.37C3155.65 2839.62 3146.11 2824.46 3127.59 2817.41C3096.53 2814.33 3073.03 2815.51 3050.97 2838.94Z" fill="url(#paint11_linear_5_5)"/>
<path d="M610.51 2755.43C637.404 2755.08 664.297 2754.84 691.192 2754.68C700.334 2754.62 709.473 2754.51 718.614 2754.4C731.787 2754.23 744.957 2754.15 758.13 2754.09C762.187 2754.02 766.245 2753.95 770.426 2753.87C799.692 2753.87 819.367 2759.9 844.011 2775.23C866.591 2798.46 870.085 2827.3 869.702 2858.49C867.786 2880.01 859.908 2896.59 844.226 2911.46C816.841 2931.82 789.913 2936.51 756.421 2935.35C752.964 2935.29 749.506 2935.22 745.943 2935.16C737.524 2935 729.112 2934.77 720.697 2934.49C720.697 2943.58 720.697 2952.67 720.697 2962.03C730.923 2962.03 741.15 2962.03 751.687 2962.03C755.13 2979.25 755.13 2979.25 751.687 3017.13C705.098 3017.13 658.51 3017.13 610.51 3017.13C610.51 2998.95 610.51 2980.77 610.51 2962.03C619.6 2960.9 628.691 2959.76 638.057 2958.59C638.057 2912 638.057 2865.41 638.057 2817.41C630.103 2816.28 622.149 2815.14 613.953 2813.97C608.676 2803.42 610.156 2792.39 610.295 2780.83C610.31 2778.4 610.326 2775.96 610.342 2773.46C610.383 2767.45 610.444 2761.44 610.51 2755.43ZM720.697 2820.86C713.4 2835.45 716.386 2852.25 720.697 2867.34C721.833 2870.18 722.969 2873.02 724.14 2875.95C730.666 2876.23 737.195 2876.43 743.724 2876.6C749.177 2876.78 749.177 2876.78 754.74 2876.96C770.077 2875.52 778.837 2869.46 789.563 2858.73C791.573 2846.97 791.573 2846.97 789.563 2834.63C779.609 2823.84 774.096 2821.04 759.367 2819.51C754.725 2819.6 750.083 2819.77 745.446 2820C743.06 2820.06 740.674 2820.12 738.216 2820.19C732.374 2820.35 726.535 2820.59 720.697 2820.86Z" fill="url(#paint12_linear_5_5)"/>
<path d="M3261.88 2755.43C3288.77 2755.08 3315.66 2754.84 3342.56 2754.68C3351.7 2754.62 3360.84 2754.51 3369.98 2754.4C3383.15 2754.23 3396.32 2754.15 3409.5 2754.09C3413.55 2754.02 3417.61 2753.95 3421.79 2753.87C3454.41 2753.87 3480.64 2761.17 3504.83 2783.91C3522.89 2805.59 3522.86 2835.51 3521.78 2862.54C3518.75 2887.1 3508.18 2903 3489.57 2918.78C3462.78 2932.17 3441.41 2936.17 3411.66 2936.86C3408.17 2936.97 3404.68 2937.09 3401.09 2937.21C3392.56 2937.49 3384.04 2937.73 3375.51 2937.93C3375.51 2944.75 3375.51 2951.57 3375.51 2958.59C3379.98 2959.09 3384.45 2959.59 3389.06 2960.1C3402.62 2961.6 3402.62 2961.6 3406.5 2965.48C3406.84 2973.51 3406.94 2981.55 3406.93 2989.58C3406.94 2996.19 3406.94 2996.19 3406.95 3002.92C3406.5 3013.68 3406.5 3013.68 3403.05 3017.13C3392.91 3017.48 3382.85 3017.61 3372.71 3017.59C3368.14 3017.59 3368.14 3017.59 3363.48 3017.6C3357.03 3017.6 3350.59 3017.59 3344.14 3017.58C3334.23 3017.56 3324.32 3017.58 3314.41 3017.6C3308.16 3017.6 3301.91 3017.59 3295.66 3017.59C3292.68 3017.59 3289.7 3017.6 3286.62 3017.61C3265.72 3017.52 3265.72 3017.52 3261.88 3013.68C3261.62 3004.97 3261.56 2996.35 3261.66 2987.64C3261.68 2985.2 3261.69 2982.75 3261.71 2980.23C3261.75 2974.16 3261.81 2968.1 3261.88 2962.03C3270.97 2960.9 3280.06 2959.76 3289.42 2958.59C3292.76 2941.91 3293.32 2925.74 3293.2 2908.8C3293.2 2906.08 3293.19 2903.35 3293.19 2900.55C3293.17 2891.92 3293.13 2883.29 3293.08 2874.66C3293.06 2868.78 3293.05 2862.9 3293.03 2857.03C3293 2842.67 3292.94 2828.32 3292.87 2813.97C3283.78 2813.97 3274.69 2813.97 3265.32 2813.97C3261.41 2801.54 3261.53 2789.92 3261.66 2776.96C3261.69 2772.93 3261.72 2768.89 3261.76 2764.74C3261.79 2761.67 3261.83 2758.6 3261.88 2755.43ZM3372.06 2820.86C3371.97 2829.39 3371.9 2837.93 3371.85 2846.47C3371.82 2848.9 3371.79 2851.34 3371.76 2853.85C3371.73 2860.07 3371.88 2866.29 3372.06 2872.51C3378.18 2878.63 3386.81 2876.69 3395.09 2876.81C3411.75 2876.65 3423.68 2875.8 3437.49 2865.62C3443.76 2857.44 3444.46 2853.53 3443.94 2843.24C3440.08 2832.19 3436.54 2827.95 3427.16 2820.86C3417.19 2819.86 3408.63 2819.54 3398.75 2820C3396.18 2820.06 3393.62 2820.12 3390.97 2820.19C3384.67 2820.35 3378.37 2820.59 3372.06 2820.86Z" fill="url(#paint13_linear_5_5)"/>
<path d="M2902.42 2767.28C2921.22 2779.54 2934.82 2792.22 2941.65 2813.97C2944.19 2839.75 2943.65 2863.26 2931.32 2886.28C2906.09 2912.71 2878.39 2918.06 2842.89 2919.83C2827.5 2921.02 2817.48 2923.62 2803.91 2931.04C2800.5 2937.86 2797.1 2944.68 2793.58 2951.7C2819.72 2951.7 2845.85 2951.7 2872.78 2951.7C2872.78 2943.75 2872.78 2935.8 2872.78 2927.6C2876.22 2924.16 2876.22 2924.16 2882.62 2923.77C2886.7 2923.79 2886.7 2923.79 2890.87 2923.82C2894.84 2923.83 2894.84 2923.83 2898.89 2923.85C2902.28 2923.88 2905.66 2923.91 2909.15 2923.94C2919.87 2924.01 2930.6 2924.08 2941.65 2924.16C2941.65 2954.84 2941.65 2985.52 2941.65 3017.13C2868.92 3017.13 2796.2 3017.13 2721.27 3017.13C2714.97 3004.52 2717.04 2989.68 2716.97 2975.81C2716.86 2971.11 2716.86 2971.11 2716.75 2966.33C2716.57 2934.04 2722.14 2905.37 2745.24 2881.75C2769.94 2861.36 2801.49 2859.23 2832.22 2855.42C2835.13 2855.05 2838.04 2854.68 2841.04 2854.3C2843.67 2853.99 2846.3 2853.68 2849.01 2853.36C2856.35 2852.28 2856.35 2852.28 2862.45 2844.96C2861.31 2833.61 2860.31 2829.04 2852.12 2820.86C2845.02 2819.01 2845.02 2819.01 2837.05 2818.28C2834.4 2817.94 2831.75 2817.6 2829.01 2817.25C2819.58 2817.45 2815.01 2818.76 2807.36 2824.3C2802.94 2833.04 2802.94 2833.04 2800.47 2841.52C2789.21 2842.3 2777.95 2842.99 2766.68 2843.67C2761.88 2844 2761.88 2844 2756.99 2844.34C2753.92 2844.52 2750.84 2844.7 2747.68 2844.88C2743.43 2845.15 2743.43 2845.15 2739.1 2845.43C2731.6 2844.96 2731.6 2844.96 2721.27 2838.07C2724.26 2812.92 2730.12 2793.88 2748.82 2776.09C2757.62 2770.21 2766.46 2766 2776.37 2762.32C2779.34 2761.1 2782.31 2759.88 2785.38 2758.62C2821.83 2748.65 2868.64 2750.25 2902.42 2767.28Z" fill="url(#paint14_linear_5_5)"/>
<path d="M1938.56 2750.48C1941.57 2750.51 1944.58 2750.53 1947.68 2750.56C1973.28 2751.19 1995.31 2755.1 2018.83 2765.76C2021.2 2766.81 2023.57 2767.86 2026.02 2768.94C2031.75 2772.44 2031.75 2772.44 2039.49 2782.98C2044.12 2804.88 2045.86 2824.42 2036.05 2844.96C2027.66 2845.05 2019.26 2845.12 2010.87 2845.18C2008.49 2845.21 2006.12 2845.23 2003.67 2845.26C1992.84 2845.32 1984.42 2844.97 1974.07 2841.52C1972.37 2829.59 1972.37 2829.59 1970.63 2817.41C1962.23 2817.9 1953.84 2818.4 1945.45 2818.92C1943.07 2819.06 1940.69 2819.19 1938.24 2819.33C1927.68 2819.99 1918.74 2820.94 1908.65 2824.3C1910.92 2831.12 1913.19 2837.94 1915.53 2844.96C1918.55 2845.32 1918.55 2845.32 1921.62 2845.69C2015.95 2857.27 2015.95 2857.27 2039.49 2882.84C2054.12 2904.94 2061.18 2925.24 2056.71 2951.7C2050.34 2974.9 2039.09 2990.52 2018.83 3003.35C1992.06 3016.09 1967.52 3019.36 1938.13 3018.85C1934.35 3018.81 1930.57 3018.78 1926.67 3018.74C1891.48 3017.91 1860.91 3012.3 1832.89 2989.58C1827.24 2978.27 1828.81 2965.84 1828.8 2953.43C1828.76 2950.72 1828.72 2948.02 1828.68 2945.23C1828.66 2938.2 1829.03 2931.18 1829.45 2924.16C1836.34 2917.27 1836.34 2917.27 1849.69 2916.48C1855.07 2916.49 1860.45 2916.54 1865.82 2916.63C1868.55 2916.63 1871.28 2916.63 1874.1 2916.63C1894.39 2916.79 1894.39 2916.79 1898.32 2920.71C1898.8 2929.91 1898.46 2939.05 1898.32 2948.26C1909.65 2948.46 1920.98 2948.58 1932.32 2948.69C1935.55 2948.75 1938.77 2948.81 1942.1 2948.87C1945.18 2948.89 1948.27 2948.91 1951.45 2948.93C1955.72 2948.99 1955.72 2948.99 1960.08 2949.04C1967.95 2948.93 1967.95 2948.93 1974.07 2941.37C1972.97 2932.41 1972.97 2932.41 1970.63 2924.16C1950.6 2917.09 1931.51 2913.05 1910.37 2910.81C1885.14 2907.65 1861.38 2903.11 1844.31 2882.84C1830.56 2861.65 1826.43 2842.5 1829.45 2817.41C1836.54 2793.81 1847.98 2779.53 1868.79 2766.64C1892.49 2755.1 1912.07 2750.17 1938.56 2750.48Z" fill="url(#paint15_linear_5_5)"/>
<path d="M2311.52 3175.52C2328.56 3175.52 2345.61 3175.52 2363.17 3175.52C2366.47 3187 2369.77 3198.48 2373.07 3209.95C2373.99 3213.17 2374.92 3216.39 2375.88 3219.71C2376.79 3222.88 2377.7 3226.05 2378.63 3229.32C2379.88 3233.65 2379.88 3233.65 2381.15 3238.07C2384.54 3250.45 2387.6 3262.92 2390.71 3275.38C2391.85 3242.43 2392.99 3209.47 2394.16 3175.52C2405.52 3175.52 2416.88 3175.52 2428.59 3175.52C2428.59 3250.52 2428.59 3325.51 2428.59 3402.78C2414.95 3402.78 2401.32 3402.78 2387.27 3402.78C2384.1 3391.88 2380.95 3380.98 2377.8 3370.07C2376.93 3367.08 2376.06 3364.1 2375.16 3361.02C2366.99 3332.6 2360.03 3304.13 2352.84 3275.38C2351.7 3317.42 2350.56 3359.46 2349.39 3402.78C2336.89 3402.78 2324.39 3402.78 2311.52 3402.78C2311.52 3327.79 2311.52 3252.79 2311.52 3175.52Z" fill="url(#paint16_linear_5_5)"/>
<path d="M2111.8 3175.52C2128.85 3175.52 2145.89 3175.52 2163.45 3175.52C2166.76 3187 2170.06 3198.48 2173.35 3209.95C2174.28 3213.17 2175.21 3216.39 2176.16 3219.71C2177.07 3222.88 2177.98 3226.05 2178.92 3229.32C2180.17 3233.65 2180.17 3233.65 2181.44 3238.07C2184.83 3250.45 2187.89 3262.92 2191 3275.38C2192.14 3242.43 2193.27 3209.47 2194.44 3175.52C2205.81 3175.52 2217.17 3175.52 2228.88 3175.52C2228.88 3250.52 2228.88 3325.51 2228.88 3402.78C2215.24 3402.78 2201.61 3402.78 2187.56 3402.78C2184.39 3391.88 2181.23 3380.98 2178.09 3370.07C2177.22 3367.08 2176.35 3364.1 2175.45 3361.02C2167.27 3332.6 2160.31 3304.13 2153.12 3275.38C2151.99 3317.42 2150.85 3359.46 2149.68 3402.78C2137.18 3402.78 2124.68 3402.78 2111.8 3402.78C2111.8 3327.79 2111.8 3252.79 2111.8 3175.52Z" fill="url(#paint17_linear_5_5)"/>
<path d="M1984.4 3175.52C2067.04 3175.52 2067.04 3175.52 2087.7 3192.74C2098.49 3212.84 2098.26 3241.4 2092.26 3263.15C2089.75 3269.59 2087.02 3275.93 2084.26 3282.26C2083.48 3292.91 2083.48 3292.91 2089.27 3302.51C2097.61 3321.14 2096.55 3341.17 2096.95 3361.25C2097.07 3365.24 2097.19 3369.24 2097.31 3373.36C2097.59 3383.16 2097.82 3392.97 2098.03 3402.78C2083.26 3402.78 2068.49 3402.78 2053.27 3402.78C2053.06 3397.18 2052.85 3391.59 2052.63 3385.82C2052.34 3378.49 2052.05 3371.16 2051.76 3363.83C2051.62 3360.14 2051.49 3356.45 2051.35 3352.64C2051.21 3349.1 2051.06 3345.56 2050.91 3341.92C2050.79 3338.65 2050.66 3335.39 2050.53 3332.03C2050.12 3323.12 2050.12 3323.12 2046.38 3313.25C2038.43 3310.98 2030.47 3308.71 2022.28 3306.37C2022.28 3338.18 2022.28 3370 2022.28 3402.78C2009.78 3402.78 1997.28 3402.78 1984.4 3402.78C1984.4 3327.79 1984.4 3252.79 1984.4 3175.52ZM2022.28 3209.95C2022.28 3230.41 2022.28 3250.86 2022.28 3271.93C2041.83 3274.25 2041.83 3274.25 2049.31 3266.12C2053.83 3257.03 2054.65 3251.07 2054.56 3240.94C2054.58 3238.03 2054.61 3235.12 2054.64 3232.12C2052.94 3221.72 2050.75 3217.08 2042.94 3209.95C2036.12 3209.95 2029.3 3209.95 2022.28 3209.95Z" fill="url(#paint18_linear_5_5)"/>
<path d="M2535.82 3174.34C2546.79 3180.76 2553.46 3190.55 2557.86 3202.33C2561.19 3218.44 2560.16 3234.93 2559.44 3251.27C2546.94 3251.27 2534.44 3251.27 2521.56 3251.27C2520.89 3243.54 2520.21 3235.81 2519.54 3228.07C2518.48 3219.35 2518.48 3219.35 2511.23 3209.95C2505.55 3211.09 2499.87 3212.23 2494.01 3213.4C2489.55 3227.03 2490.01 3240.85 2489.99 3255.03C2489.98 3257.72 2489.97 3260.41 2489.96 3263.18C2489.94 3268.86 2489.93 3274.54 2489.93 3280.23C2489.92 3288.89 2489.86 3297.56 2489.8 3306.23C2489.79 3311.76 2489.78 3317.29 2489.78 3322.82C2489.75 3325.4 2489.73 3327.98 2489.7 3330.63C2489.76 3344.74 2491.16 3355.66 2497.46 3368.35C2505.97 3367.16 2505.97 3367.16 2514.67 3364.9C2519.77 3354.71 2519.33 3344.81 2520.05 3333.48C2520.34 3329.07 2520.63 3324.66 2520.93 3320.11C2521.24 3315.01 2521.24 3315.01 2521.56 3309.81C2514.74 3309.81 2507.92 3309.81 2500.9 3309.81C2500.9 3298.45 2500.9 3287.09 2500.9 3275.38C2520.22 3275.38 2539.53 3275.38 2559.44 3275.38C2559.81 3290.3 2560.08 3305.22 2560.3 3320.14C2560.47 3326.45 2560.47 3326.45 2560.65 3332.88C2560.92 3357.94 2559.51 3374.74 2545.66 3395.89C2532.6 3407.15 2517.82 3409.61 2500.9 3409.67C2487.21 3408.62 2474.94 3407.07 2464.25 3397.95C2453.04 3384.74 2448.83 3375.91 2448.64 3358.98C2448.6 3355.6 2448.55 3352.22 2448.51 3348.73C2448.48 3345.07 2448.46 3341.4 2448.43 3337.63C2448.4 3333.86 2448.37 3330.1 2448.35 3326.22C2448.3 3318.25 2448.26 3310.27 2448.23 3302.29C2448.17 3290.11 2448.02 3277.93 2447.87 3265.75C2447.84 3258 2447.81 3250.25 2447.78 3242.5C2447.72 3238.87 2447.66 3235.23 2447.6 3231.48C2447.66 3210.54 2448.98 3198.31 2463.02 3182.41C2482.72 3166.7 2512.31 3167.13 2535.82 3174.34Z" fill="url(#paint19_linear_5_5)"/>
<path d="M1881.1 3175.52C1899.28 3175.52 1917.46 3175.52 1936.19 3175.52C1940.7 3202.61 1945.19 3229.7 1949.66 3256.79C1951.74 3269.37 1953.82 3281.95 1955.92 3294.53C1957.94 3306.67 1959.94 3318.81 1961.94 3330.96C1962.71 3335.59 1963.48 3340.22 1964.25 3344.85C1965.33 3351.34 1966.4 3357.83 1967.47 3364.33C1968.08 3368.02 1968.69 3371.72 1969.32 3375.52C1970.63 3385.56 1970.63 3385.56 1970.63 3402.78C1956.99 3402.78 1943.36 3402.78 1929.31 3402.78C1927.03 3388.01 1924.76 3373.24 1922.42 3358.02C1911.06 3358.02 1899.69 3358.02 1887.99 3358.02C1886.85 3372.79 1885.71 3387.56 1884.54 3402.78C1870.91 3402.78 1857.27 3402.78 1843.22 3402.78C1849.77 3355.81 1856.8 3308.94 1864.44 3262.14C1866.07 3252.13 1867.68 3242.12 1869.29 3232.11C1870.33 3225.72 1871.37 3219.32 1872.41 3212.93C1873.13 3208.46 1873.13 3208.46 1873.86 3203.91C1877.26 3183.2 1877.26 3183.2 1881.1 3175.52ZM1905.2 3240.94C1903.46 3250.77 1901.74 3260.6 1900.04 3270.43C1899.55 3273.18 1899.05 3275.94 1898.55 3278.77C1895.74 3295.13 1894.34 3310.44 1894.87 3327.03C1902.83 3327.03 1910.78 3327.03 1918.98 3327.03C1917.91 3317.2 1916.83 3307.37 1915.75 3297.54C1915.45 3294.79 1915.15 3292.04 1914.84 3289.2C1913.06 3273.06 1911.04 3257 1908.65 3240.94C1907.51 3240.94 1906.37 3240.94 1905.2 3240.94Z" fill="url(#paint20_linear_5_5)"/>
<path d="M1736.48 3175.52C1770.57 3175.52 1804.66 3175.52 1839.78 3175.52C1839.78 3186.88 1839.78 3198.25 1839.78 3209.95C1819.33 3209.95 1798.87 3209.95 1777.8 3209.95C1777.8 3229.27 1777.8 3248.59 1777.8 3268.49C1793.71 3268.49 1809.62 3268.49 1826.01 3268.49C1826.01 3279.85 1826.01 3291.22 1826.01 3302.92C1810.1 3302.92 1794.19 3302.92 1777.8 3302.92C1777.8 3324.51 1777.8 3346.1 1777.8 3368.35C1798.25 3368.35 1818.71 3368.35 1839.78 3368.35C1839.78 3380.85 1839.78 3393.35 1839.78 3406.22C1805.69 3406.22 1771.6 3406.22 1736.48 3406.22C1736.48 3330.09 1736.48 3253.96 1736.48 3175.52Z" fill="url(#paint21_linear_5_5)"/>
<path d="M1626.29 3175.52C1638.79 3175.52 1651.29 3175.52 1664.17 3175.52C1664.17 3239.15 1664.17 3302.79 1664.17 3368.35C1683.49 3368.35 1702.8 3368.35 1722.71 3368.35C1722.71 3380.85 1722.71 3393.35 1722.71 3406.22C1690.89 3406.22 1659.07 3406.22 1626.29 3406.22C1626.29 3330.09 1626.29 3253.96 1626.29 3175.52Z" fill="url(#paint22_linear_5_5)"/>
<path d="M2249.54 3175.52C2263.17 3175.52 2276.81 3175.52 2290.86 3175.52C2290.86 3250.52 2290.86 3325.51 2290.86 3402.78C2277.22 3402.78 2263.59 3402.78 2249.54 3402.78C2249.54 3327.79 2249.54 3252.79 2249.54 3175.52Z" fill="url(#paint23_linear_5_5)"/>
<defs>
<radialGradient id="paint0_radial_5_5" cx="0" cy="0" r="1" gradientUnits="userSpaceOnUse" gradientTransform="translate(2785.04 853.183) rotate(134.534) scale(2060.27 2262.88)">
<stop stop-color="#09E1FF"/>
<stop offset="0.490209" stop-color="#97CDFF" stop-opacity="0.9"/>
<stop offset="0.962843" stop-color="#FA00FF"/>
</radialGradient>
<radialGradient id="paint1_radial_5_5" cx="0" cy="0" r="1" gradientUnits="userSpaceOnUse" gradientTransform="translate(3185.6 83.1647) rotate(128.107) scale(3672.22 3917.69)">
<stop stop-color="#09E1FF"/>
<stop offset="0.490209" stop-color="#97CDFF" stop-opacity="0.9"/>
<stop offset="0.962843" stop-color="#FA00FF"/>
</radialGradient>
<radialGradient id="paint2_radial_5_5" cx="0" cy="0" r="1" gradientUnits="userSpaceOnUse" gradientTransform="translate(2218.01 1137.11) rotate(110.601) scale(847.035 612.906)">
<stop stop-color="#09E1FF"/>
<stop offset="0.490209" stop-color="#97CDFF" stop-opacity="0.9"/>
<stop offset="0.962843" stop-color="#FA00FF"/>
</radialGradient>
<radialGradient id="paint3_radial_5_5" cx="0" cy="0" r="1" gradientUnits="userSpaceOnUse" gradientTransform="translate(2491.54 1246.9) rotate(115.036) scale(653.952 550.879)">
<stop stop-color="#09E1FF"/>
<stop offset="0.490209" stop-color="#97CDFF" stop-opacity="0.9"/>
<stop offset="0.962843" stop-color="#FA00FF"/>
</radialGradient>
<radialGradient id="paint4_radial_5_5" cx="0" cy="0" r="1" gradientUnits="userSpaceOnUse" gradientTransform="translate(1923.39 1246.9) rotate(115.036) scale(653.952 550.879)">
<stop stop-color="#09E1FF"/>
<stop offset="0.490209" stop-color="#97CDFF" stop-opacity="0.9"/>
<stop offset="0.962843" stop-color="#FA00FF"/>
</radialGradient>
<radialGradient id="paint5_radial_5_5" cx="0" cy="0" r="1" gradientUnits="userSpaceOnUse" gradientTransform="translate(2218.39 1955.74) rotate(164.905) scale(313.097 172.955)">
<stop stop-color="#09E1FF"/>
<stop offset="0.490209" stop-color="#97CDFF" stop-opacity="0.9"/>
<stop offset="0.962843" stop-color="#FA00FF"/>
</radialGradient>
<linearGradient id="paint6_linear_5_5" x1="2229.56" y1="2233.91" x2="1515.55" y2="3119.33" gradientUnits="userSpaceOnUse">
<stop stop-color="#00E0FF"/>
<stop offset="0.464583" stop-color="#60E2FF"/>
<stop offset="1" stop-color="#FA00FF"/>
</linearGradient>
<linearGradient id="paint7_linear_5_5" x1="2786.18" y1="2244.15" x2="2082.66" y2="3119.09" gradientUnits="userSpaceOnUse">
<stop stop-color="#00E0FF"/>
<stop offset="0.464583" stop-color="#60E2FF"/>
<stop offset="1" stop-color="#FA00FF"/>
</linearGradient>
<linearGradient id="paint8_linear_5_5" x1="1514.92" y1="2246.46" x2="804.487" y2="3044.91" gradientUnits="userSpaceOnUse">
<stop stop-color="#00E0FF"/>
<stop offset="0.464583" stop-color="#60E2FF"/>
<stop offset="1" stop-color="#FA00FF"/>
</linearGradient>
<linearGradient id="paint9_linear_5_5" x1="1929.18" y1="2249.69" x2="1247.13" y2="3165.85" gradientUnits="userSpaceOnUse">
<stop stop-color="#00E0FF"/>
<stop offset="0.464583" stop-color="#60E2FF"/>
<stop offset="1" stop-color="#FA00FF"/>
</linearGradient>
<linearGradient id="paint10_linear_5_5" x1="3117.96" y1="2236.12" x2="2409.5" y2="3120.35" gradientUnits="userSpaceOnUse">
<stop stop-color="#00E0FF"/>
<stop offset="0.464583" stop-color="#60E2FF"/>
<stop offset="1" stop-color="#FA00FF"/>
</linearGradient>
<linearGradient id="paint11_linear_5_5" x1="3641.98" y1="2232.33" x2="2923.11" y2="3081.32" gradientUnits="userSpaceOnUse">
<stop stop-color="#00E0FF"/>
<stop offset="0.464583" stop-color="#60E2FF"/>
<stop offset="1" stop-color="#FA00FF"/>
</linearGradient>
<linearGradient id="paint12_linear_5_5" x1="1219.98" y1="2246.26" x2="506.571" y2="3011.11" gradientUnits="userSpaceOnUse">
<stop stop-color="#00E0FF"/>
<stop offset="0.464583" stop-color="#60E2FF"/>
<stop offset="1" stop-color="#FA00FF"/>
</linearGradient>
<linearGradient id="paint13_linear_5_5" x1="3873.53" y1="2245.34" x2="3158.89" y2="3012.54" gradientUnits="userSpaceOnUse">
<stop stop-color="#00E0FF"/>
<stop offset="0.464583" stop-color="#60E2FF"/>
<stop offset="1" stop-color="#FA00FF"/>
</linearGradient>
<linearGradient id="paint14_linear_5_5" x1="3247.86" y1="2242.1" x2="2530.84" y2="2907.91" gradientUnits="userSpaceOnUse">
<stop stop-color="#00E0FF"/>
<stop offset="0.464583" stop-color="#60E2FF"/>
<stop offset="1" stop-color="#FA00FF"/>
</linearGradient>
<linearGradient id="paint15_linear_5_5" x1="2367.56" y1="2232.88" x2="1640.33" y2="2908.6" gradientUnits="userSpaceOnUse">
<stop stop-color="#00E0FF"/>
<stop offset="0.464583" stop-color="#60E2FF"/>
<stop offset="1" stop-color="#FA00FF"/>
</linearGradient>
<linearGradient id="paint16_linear_5_5" x1="2586.47" y1="2737.31" x2="2060.2" y2="3031.92" gradientUnits="userSpaceOnUse">
<stop stop-color="#00E0FF"/>
<stop offset="0.464583" stop-color="#60E2FF"/>
<stop offset="1" stop-color="#FA00FF"/>
</linearGradient>
<linearGradient id="paint17_linear_5_5" x1="2386.75" y1="2737.31" x2="1860.48" y2="3031.92" gradientUnits="userSpaceOnUse">
<stop stop-color="#00E0FF"/>
<stop offset="0.464583" stop-color="#60E2FF"/>
<stop offset="1" stop-color="#FA00FF"/>
</linearGradient>
<linearGradient id="paint18_linear_5_5" x1="2251.26" y1="2737.31" x2="1733.31" y2="3018.73" gradientUnits="userSpaceOnUse">
<stop stop-color="#00E0FF"/>
<stop offset="0.464583" stop-color="#60E2FF"/>
<stop offset="1" stop-color="#FA00FF"/>
</linearGradient>
<linearGradient id="paint19_linear_5_5" x1="2713.16" y1="2706.5" x2="2184.1" y2="2977.22" gradientUnits="userSpaceOnUse">
<stop stop-color="#00E0FF"/>
<stop offset="0.464583" stop-color="#60E2FF"/>
<stop offset="1" stop-color="#FA00FF"/>
</linearGradient>
<linearGradient id="paint20_linear_5_5" x1="2142.43" y1="2737.31" x2="1593.84" y2="3071.51" gradientUnits="userSpaceOnUse">
<stop stop-color="#00E0FF"/>
<stop offset="0.464583" stop-color="#60E2FF"/>
<stop offset="1" stop-color="#FA00FF"/>
</linearGradient>
<linearGradient id="paint21_linear_5_5" x1="1979.08" y1="2730.67" x2="1485.96" y2="2970.61" gradientUnits="userSpaceOnUse">
<stop stop-color="#00E0FF"/>
<stop offset="0.464583" stop-color="#60E2FF"/>
<stop offset="1" stop-color="#FA00FF"/>
</linearGradient>
<linearGradient id="paint22_linear_5_5" x1="1852.72" y1="2730.67" x2="1380.83" y2="2944.97" gradientUnits="userSpaceOnUse">
<stop stop-color="#00E0FF"/>
<stop offset="0.464583" stop-color="#60E2FF"/>
<stop offset="1" stop-color="#FA00FF"/>
</linearGradient>
<linearGradient id="paint23_linear_5_5" x1="2346.58" y1="2737.31" x2="2111.79" y2="2783.7" gradientUnits="userSpaceOnUse">
<stop stop-color="#00E0FF"/>
<stop offset="0.464583" stop-color="#60E2FF"/>
<stop offset="1" stop-color="#FA00FF"/>
</linearGradient>
</defs>
</svg>
