<svg xmlns="http://www.w3.org/2000/svg" width="623" height="234" fill="none" viewBox="0 0 623 234">
  <g filter="url(#a)">
    <g filter="url(#b)">
      <path fill="#444547" fill-opacity=".92" d="M4 55.987C4 25.067 32.39 0 67.412 0h488.176C590.609 0 619 25.066 619 55.987v106.641c0 30.92-28.391 55.986-63.412 55.986H67.412C32.391 218.614 4 193.548 4 162.628V55.987Z" shape-rendering="crispEdges"/>
    </g>
    <path fill="url(#c)" d="M90.688 148V68h27.031c6.276 0 11.406 1.133 15.39 3.398 4.011 2.24 6.98 5.274 8.907 9.102 1.927 3.828 2.89 8.099 2.89 12.813 0 4.713-.963 8.997-2.89 12.851-1.901 3.854-4.844 6.927-8.828 9.219-3.985 2.265-9.089 3.398-15.313 3.398H98.5v-8.593h19.063c4.296 0 7.747-.743 10.351-2.227 2.604-1.484 4.492-3.49 5.664-6.016 1.198-2.552 1.797-5.43 1.797-8.632 0-3.204-.599-6.068-1.797-8.594-1.172-2.526-3.073-4.505-5.703-5.938-2.63-1.458-6.12-2.187-10.469-2.187h-17.031V148h-9.688Zm68.574 0V88h8.906v9.063h.625c1.094-2.97 3.073-5.378 5.937-7.227 2.865-1.849 6.094-2.773 9.688-2.773.677 0 1.523.013 2.539.039 1.016.026 1.784.065 2.305.117v9.375c-.313-.078-1.029-.196-2.149-.352a21.128 21.128 0 0 0-3.476-.273c-2.917 0-5.521.612-7.813 1.836-2.265 1.198-4.062 2.864-5.39 5-1.302 2.109-1.954 4.518-1.954 7.226V148h-9.218Zm64.258 1.25c-5.782 0-10.769-1.276-14.961-3.828-4.167-2.578-7.383-6.172-9.649-10.781-2.239-4.636-3.359-10.026-3.359-16.172 0-6.146 1.12-11.563 3.359-16.25 2.266-4.714 5.417-8.386 9.453-11.016 4.063-2.656 8.802-3.984 14.219-3.984 3.125 0 6.211.52 9.258 1.562 3.047 1.042 5.82 2.735 8.32 5.078 2.5 2.318 4.492 5.391 5.977 9.219 1.484 3.828 2.226 8.542 2.226 14.141v3.906h-46.25v-7.969h36.875c0-3.385-.677-6.406-2.031-9.062-1.328-2.657-3.229-4.753-5.703-6.29-2.448-1.536-5.339-2.304-8.672-2.304-3.672 0-6.849.912-9.531 2.734-2.656 1.797-4.701 4.141-6.133 7.032-1.432 2.89-2.148 5.989-2.148 9.296v5.313c0 4.531.781 8.372 2.343 11.523 1.589 3.125 3.789 5.508 6.602 7.149 2.812 1.614 6.081 2.422 9.805 2.422 2.421 0 4.609-.339 6.562-1.016 1.979-.703 3.685-1.745 5.117-3.125 1.433-1.406 2.539-3.151 3.321-5.234l8.906 2.5a19.74 19.74 0 0 1-4.727 7.968c-2.213 2.266-4.948 4.037-8.203 5.313-3.255 1.25-6.914 1.875-10.976 1.875ZM309.623 88l-22.187 60h-9.375l-22.188-60h10l16.563 47.812h.625L299.623 88h10Zm12.168 60V88h9.219v60h-9.219Zm4.688-70c-1.797 0-3.347-.612-4.649-1.836-1.276-1.224-1.914-2.695-1.914-4.414 0-1.719.638-3.19 1.914-4.414 1.302-1.224 2.852-1.836 4.649-1.836 1.796 0 3.333.612 4.609 1.836 1.302 1.224 1.953 2.695 1.953 4.414 0 1.719-.651 3.19-1.953 4.414-1.276 1.224-2.813 1.836-4.609 1.836Zm45.791 71.25c-5.417 0-10.17-1.289-14.258-3.867-4.063-2.578-7.24-6.185-9.532-10.821-2.265-4.635-3.398-10.052-3.398-16.25 0-6.25 1.133-11.705 3.398-16.367 2.292-4.661 5.469-8.28 9.532-10.86 4.088-2.577 8.841-3.866 14.258-3.866 5.416 0 10.156 1.289 14.218 3.867 4.089 2.578 7.266 6.198 9.532 10.859 2.291 4.662 3.437 10.117 3.437 16.367 0 6.198-1.146 11.615-3.437 16.25-2.266 4.636-5.443 8.243-9.532 10.821-4.062 2.578-8.802 3.867-14.218 3.867Zm0-8.281c4.114 0 7.5-1.055 10.156-3.164 2.656-2.11 4.622-4.883 5.898-8.321 1.276-3.437 1.914-7.161 1.914-11.172 0-4.01-.638-7.747-1.914-11.21-1.276-3.464-3.242-6.263-5.898-8.399-2.656-2.135-6.042-3.203-10.156-3.203-4.115 0-7.5 1.068-10.157 3.203-2.656 2.136-4.622 4.935-5.898 8.399-1.276 3.463-1.914 7.2-1.914 11.21 0 4.011.638 7.735 1.914 11.172 1.276 3.438 3.242 6.211 5.898 8.321 2.657 2.109 6.042 3.164 10.157 3.164Zm79.072-17.5V88h9.219v60h-9.219v-10.156h-.625c-1.406 3.047-3.594 5.638-6.563 7.773-2.968 2.11-6.718 3.164-11.25 3.164-3.75 0-7.083-.82-10-2.461-2.916-1.666-5.208-4.166-6.875-7.5-1.666-3.359-2.5-7.591-2.5-12.695V88h9.219v37.5c0 4.375 1.224 7.865 3.672 10.469 2.474 2.604 5.625 3.906 9.453 3.906 2.292 0 4.622-.586 6.992-1.758 2.396-1.172 4.401-2.969 6.016-5.39 1.64-2.422 2.461-5.508 2.461-9.258Zm68.603-22.032-8.281 2.344c-.521-1.38-1.289-2.721-2.305-4.023-.989-1.328-2.343-2.422-4.062-3.281-1.719-.86-3.919-1.29-6.602-1.29-3.672 0-6.731.847-9.179 2.54-2.422 1.666-3.633 3.789-3.633 6.367 0 2.291.833 4.101 2.5 5.429 1.666 1.329 4.271 2.435 7.812 3.321l8.907 2.187c5.364 1.302 9.362 3.295 11.992 5.977 2.63 2.656 3.945 6.081 3.945 10.273 0 3.438-.99 6.511-2.969 9.219-1.953 2.708-4.687 4.844-8.203 6.406-3.515 1.563-7.604 2.344-12.265 2.344-6.12 0-11.185-1.328-15.196-3.984-4.01-2.657-6.549-6.537-7.617-11.641l8.75-2.188c.833 3.23 2.409 5.652 4.727 7.266 2.343 1.615 5.403 2.422 9.179 2.422 4.297 0 7.709-.911 10.235-2.734 2.552-1.849 3.828-4.063 3.828-6.641 0-2.083-.729-3.828-2.188-5.234-1.458-1.433-3.698-2.5-6.718-3.204l-10-2.343c-5.495-1.302-9.532-3.321-12.11-6.055-2.552-2.76-3.828-6.211-3.828-10.352 0-3.385.951-6.38 2.852-8.984 1.927-2.604 4.544-4.648 7.851-6.133 3.334-1.484 7.11-2.226 11.328-2.226 5.938 0 10.599 1.302 13.985 3.906 3.411 2.604 5.833 6.042 7.265 10.312Z"/>
  </g>
  <defs>
    <filter id="a" width="623" height="234" x="0" y="0" color-interpolation-filters="sRGB" filterUnits="userSpaceOnUse">
      <feFlood flood-opacity="0" result="BackgroundImageFix"/>
      <feColorMatrix in="SourceAlpha" result="hardAlpha" values="0 0 0 0 0 0 0 0 0 0 0 0 0 0 0 0 0 0 127 0"/>
      <feOffset dy="4"/>
      <feGaussianBlur stdDeviation="2"/>
      <feComposite in2="hardAlpha" operator="out"/>
      <feColorMatrix values="0 0 0 0 0 0 0 0 0 0 0 0 0 0 0 0 0 0 0.25 0"/>
      <feBlend in2="BackgroundImageFix" result="effect1_dropShadow_3_48"/>
      <feBlend in="SourceGraphic" in2="effect1_dropShadow_3_48" result="shape"/>
    </filter>
    <filter id="b" width="623" height="226.614" x="0" y="0" color-interpolation-filters="sRGB" filterUnits="userSpaceOnUse">
      <feFlood flood-opacity="0" result="BackgroundImageFix"/>
      <feColorMatrix in="SourceAlpha" result="hardAlpha" values="0 0 0 0 0 0 0 0 0 0 0 0 0 0 0 0 0 0 127 0"/>
      <feOffset dy="4"/>
      <feGaussianBlur stdDeviation="2"/>
      <feComposite in2="hardAlpha" operator="out"/>
      <feColorMatrix values="0 0 0 0 0 0 0 0 0 0 0 0 0 0 0 0 0 0 0.25 0"/>
      <feBlend in2="BackgroundImageFix" result="effect1_dropShadow_3_48"/>
      <feBlend in="SourceGraphic" in2="effect1_dropShadow_3_48" result="shape"/>
    </filter>
    <radialGradient id="c" cx="0" cy="0" r="1" gradientTransform="rotate(-144.604 160.54 62.333) scale(285.096 823.471)" gradientUnits="userSpaceOnUse">
      <stop stop-color="#B9A1FB"/>
      <stop offset="1" stop-color="#0BC2FF" stop-opacity=".14"/>
      <stop offset="1" stop-color="#0DC5FF" stop-opacity="0"/>
      <stop offset="1" stop-color="#62767E" stop-opacity="0"/>
    </radialGradient>
  </defs>
</svg>
